#!OML:ASF E:\motion texture\Top Level 1\Subject 1\Session 1\male.ASF
:FULLY-SPECIFIED
:DEGREES
97
root 13.817 17.4177 5.36576 131.068 -85.5493 -128.543
lowerback -3.85511 0.96783 2.48931
upperback -3.95306 1.15406 1.43343
thorax -1.88064 0.495876 0.103713
lowerneck -19.6843 -3.61471 -5.42753
upperneck 19.487 -5.1334 6.91515
head 9.75487 -2.04444 2.58053
rclavicle -1.81391e-015 1.05356e-014
rhumerus -36.0781 15.0127 -88.5007
rradius 59.6511
rwrist -0.589778
rhand -7.59689 -8.42717
rfingers 7.12502
rthumb 18.2967 -37.5867
lclavicle -1.81391e-015 1.05356e-014
lhumerus -37.0257 -6.52126 92.461
lradius 44.1662
lwrist -2.26465
lhand -7.75566 6.92386
lfingers 7.12502
lthumb 18.1439 36.0976
rfemur -0.3703 -2.0934 21.5754
rtibia 49.0478
rfoot 19.2484 -0.137197
rtoes -1.56115
lfemur -26.0545 1.39967 -17.3115
ltibia 32.0453
lfoot 355.06 -4.16588
ltoes 7.66506
98
root 13.6705 17.4223 5.37887 125.379 -86.7727 -123.272
lowerback -3.31717 0.56633 1.61661
upperback -3.79332 0.662623 1.28884
thorax -2.03109 0.274973 0.428026
lowerneck -19.7619 -3.66644 -5.50372
upperneck 19.2872 -5.18975 7.03335
head 9.70843 -2.06127 2.62416
rclavicle 1.6524e-015 1.77912e-014
rhumerus -37.5515 13.497 -87.9442
rradius 57.8313
rwrist 0.314666
rhand -7.6661 -8.31762
rfingers 7.12502
rthumb 18.2301 -37.4833
lclavicle 1.6524e-015 1.77912e-014
lhumerus -34.916 -7.62427 93.7342
lradius 44.6546
lwrist -2.13335
lhand -8.2826 6.8753
lfingers 7.12502
lthumb 17.6369 36.0954
rfemur -2.85535 -2.87403 20.4654
rtibia 53.1682
rfoot 24.9852 -0.829464
rtoes 2.78738
lfemur -25.2729 0.445294 -18.3795
ltibia 32.1169
lfoot 354.671 -4.82565
ltoes 7.91666
99
root 13.5305 17.4262 5.38914 116.802 -87.9028 -115.157
lowerback -2.70027 0.206722 0.712963
upperback -3.59623 0.217586 1.13808
thorax -2.17729 0.0781675 0.770833
lowerneck -19.8255 -3.70658 -5.57313
upperneck 19.0316 -5.22647 7.14701
head 9.6383 -2.0695 2.66745
rclavicle -1.22998e-015 -1.39149e-015
rhumerus -38.8925 11.9243 -87.2535
rradius 55.9304
rwrist 1.07895
rhand -7.66616 -8.22209
rfingers 7.12502
rthumb 18.23 -37.3878
lclavicle -1.22998e-015 -1.39149e-015
lhumerus -32.7893 -8.81809 94.8731
lradius 45.244
lwrist -2.00351
lhand -8.88689 6.75155
lfingers 7.12502
lthumb 17.0553 36.0229
rfemur -5.5155 -3.48097 19.4193
rtibia 57.4825
rfoot 29.7599 -1.03445
rtoes 6.52846
lfemur -24.4255 -0.342446 -19.4521
ltibia 32.188
lfoot 354.288 -5.47481
ltoes 8.18428
100
root 13.395 17.4296 5.39831 98.4996 -88.9105 -97.3583
lowerback -2.02513 -0.111595 -0.191625
upperback -3.36811 -0.185265 0.971848
thorax -2.3154 -0.0980939 1.10537
lowerneck -19.8754 -3.72745 -5.62357
upperneck 18.7484 -5.23688 7.2467
head 9.5534 -2.06625 2.70628
rclavicle -1.86361e-015 1.11319e-014
rhumerus -40.1102 10.3422 -86.4537
rradius 53.9773
rwrist 1.70109
rhand -7.62077 -8.14955
rfingers 7.12502
rthumb 18.2737 -37.3112
lclavicle -1.86361e-015 1.11319e-014
lhumerus -30.6771 -10.0888 95.8554
lradius 45.9507
lwrist -1.79164
lhand -9.36655 6.82255
lfingers 7.12502
lthumb 16.5936 36.1331
rfemur -8.32155 -3.95524 18.4154
rtibia 61.9672
rfoot 33.052 -0.727194
rtoes 9.21623
lfemur -23.409 -1.00736 -20.5536
ltibia 32.1109
lfoot 353.899 -6.00133
ltoes 8.4796
101
root 13.2629 17.4322 5.40776 29.5617 -89.4786 -28.9357
lowerback -1.33977 -0.383461 -1.07094
upperback -3.12136 -0.540866 0.789455
thorax -2.43333 -0.252641 1.41522
lowerneck -19.916 -3.72213 -5.65252
upperneck 18.4692 -5.21401 7.3292
head 9.46495 -2.04826 2.74038
rclavicle 2.33572e-015 -7.95139e-015
rhumerus -41.209 8.80486 -85.5706
rradius 51.9932
rwrist 2.20624
rhand -7.59667 -8.06659
rfingers 7.12502
rthumb 18.2969 -37.2261
lclavicle 2.33572e-015 -7.95139e-015
lhumerus -28.5936 -11.4109 96.6657
lradius 46.7725
lwrist -1.46156
lhand -9.73541 7.01238
lfingers 7.12502
lthumb 16.2384 36.3523
rfemur -11.2835 -4.30995 17.4444
rtibia 66.5825
rfoot 34.5946 0.0554981
rtoes 11.0906
lfemur -22.2128 -1.60131 -21.6903
ltibia 31.8192
lfoot 353.508 -6.29696
ltoes 8.65592
102
root 13.1333 17.4352 5.41865 -32.4601 -88.9384 32.5948
lowerback -0.679618 -0.613508 -1.89501
upperback -2.87889 -0.854758 0.593055
thorax -2.53698 -0.389323 1.68419
lowerneck -19.952 -3.68565 -5.65291
upperneck 18.2327 -5.15398 7.38456
head 9.38643 -2.01405 2.766
rclavicle -1.83876e-015 0
rhumerus -42.2119 7.36442 -84.6317
rradius 50.011
rwrist 2.67506
rhand -7.61226 -7.94708
rfingers 7.12502
rthumb 18.2819 -37.108
lclavicle -1.83876e-015 0
lhumerus -26.5747 -12.7627 97.2909
lradius 47.7127
lwrist -1.01662
lhand -9.98427 7.3196
lfingers 7.12502
lthumb 15.9988 36.679
rfemur -14.4154 -4.55504 16.5188
rtibia 71.258
rfoot 34.4457 1.31887
rtoes 12.1949
lfemur -20.8804 -2.20554 -22.8535
ltibia 31.3082
lfoot 353.131 -6.30114
ltoes 8.7573
